<svg width="30" height="30" viewBox="0 0 30 30" fill="none" xmlns="http://www.w3.org/2000/svg">
<rect x="0.5" y="0.5" width="29" height="29" rx="4.5" stroke="#DBDDE6"/>
<path d="M21.25 6.66699C22.4006 6.66699 23.333 7.59942 23.333 8.75V21.25C23.333 22.4006 22.4006 23.333 21.25 23.333H8.75C7.59942 23.333 6.66699 22.4006 6.66699 21.25V8.75C6.66699 7.59941 7.59941 6.66699 8.75 6.66699H21.25ZM8.75 8.33301C8.51988 8.33301 8.33301 8.51988 8.33301 8.75V21.25C8.33301 21.4801 8.51987 21.667 8.75 21.667H17.5V8.33301H8.75ZM19.167 21.667H21.25C21.4801 21.667 21.667 21.4801 21.667 21.25V8.75C21.667 8.51987 21.4801 8.33301 21.25 8.33301H19.167V21.667ZM11.0771 12.7441C11.3821 12.4391 11.8651 12.4198 12.1924 12.6865L12.2559 12.7441L13.9229 14.4111L13.9795 14.4736C14.2464 14.8008 14.2277 15.2837 13.9229 15.5889L12.2559 17.2559C11.9304 17.5813 11.4026 17.5813 11.0771 17.2559C10.7519 16.9304 10.7518 16.4025 11.0771 16.0771L12.1553 15L11.0771 13.9229L11.0205 13.8594C10.7536 13.5321 10.7722 13.0493 11.0771 12.7441Z" fill="#3F3F51"/>
</svg>
