<svg width="20" height="20" viewBox="0 0 20 20" fill="none" xmlns="http://www.w3.org/2000/svg">
<path d="M10 1.66699C14.6024 1.66699 18.333 5.39763 18.333 10C18.333 14.6024 14.6024 18.333 10 18.333C5.39763 18.333 1.66699 14.6024 1.66699 10C1.66699 5.39763 5.39763 1.66699 10 1.66699ZM9.16699 3.38477C5.8784 3.79485 3.33301 6.60032 3.33301 10C3.33301 13.6819 6.3181 16.667 10 16.667C11.4448 16.667 12.7821 16.2068 13.874 15.4258L9.3877 10.5654C9.2456 10.4115 9.16699 10.2095 9.16699 10V3.38477ZM15.0986 14.2949C15.9082 13.3349 16.4519 12.1429 16.6152 10.833H11.9033L15.0986 14.2949ZM10.833 9.16699H16.6152C16.2392 6.15139 13.8486 3.76081 10.833 3.38477V9.16699Z" fill="#3F3F51"/>
</svg>
