<svg width="20" height="20" viewBox="0 0 20 20" fill="none" xmlns="http://www.w3.org/2000/svg">
<path d="M14.0322 1.66699C14.4714 1.66698 14.8502 1.6669 15.1621 1.69238C15.4915 1.71931 15.8195 1.77884 16.1348 1.93945C16.604 2.17864 16.9874 2.56018 17.2275 3.03125C17.3881 3.34629 17.4477 3.67397 17.4746 4.00293C17.5001 4.31471 17.5 4.6935 17.5 5.13184V8.4707C17.5 14.4548 12.9546 17.1196 11.1152 17.9521L11.1064 17.9561C10.9075 18.0461 10.7369 18.123 10.4238 18.1768C10.2862 18.2004 10.1208 18.2061 10 18.2061C9.87924 18.206 9.71462 18.2004 9.57715 18.1768C9.26049 18.1224 9.08959 18.0444 8.88574 17.9521H8.88477C7.04543 17.1196 2.5 14.4548 2.5 8.4707V5.13477C2.49999 4.69546 2.49989 4.31613 2.52539 4.00391C2.55231 3.67451 2.61181 3.34654 2.77246 3.03125C3.01215 2.56093 3.39489 2.1791 3.86524 1.93945C4.18054 1.77884 4.50848 1.71929 4.83789 1.69238C5.14997 1.66692 5.52877 1.66698 5.96777 1.66699H14.0322ZM6 3.33301C5.51994 3.33301 5.20977 3.33426 4.97363 3.35352C4.74709 3.37202 4.66225 3.40286 4.62109 3.42383C4.46444 3.5037 4.33768 3.63143 4.25781 3.78809C4.23685 3.82923 4.20503 3.91324 4.18652 4.13965C4.16723 4.37586 4.16699 4.68654 4.16699 5.16699V8.4707C4.16699 13.4337 7.90135 15.6773 9.57227 16.4336C9.67222 16.4788 9.70746 16.4947 9.73926 16.5059C9.75995 16.5131 9.78942 16.5217 9.85547 16.5332C9.85648 16.5333 9.86816 16.5347 9.89258 16.5361C9.92271 16.5379 9.96005 16.5391 10 16.5391C10.0401 16.5391 10.0782 16.5379 10.1084 16.5361C10.1327 16.5347 10.1445 16.5333 10.1455 16.5332C10.2108 16.5218 10.2397 16.5129 10.2598 16.5059C10.2911 16.4948 10.326 16.4797 10.4258 16.4346L10.4346 16.4307C12.1089 15.6713 15.833 13.4268 15.833 8.4707V5.16406C15.833 4.68454 15.8327 4.37445 15.8135 4.13867C15.795 3.9131 15.7641 3.82913 15.7432 3.78809C15.6637 3.63219 15.5356 3.50418 15.3779 3.42383C15.3366 3.40279 15.2523 3.37199 15.0264 3.35352C14.7905 3.33425 14.4803 3.33301 14 3.33301H6ZM11.9111 6.91113C12.2366 6.5857 12.7634 6.5857 13.0889 6.91113C13.4143 7.23657 13.4143 7.76343 13.0889 8.08887L9.75586 11.4229C9.43041 11.7481 8.90253 11.7482 8.57715 11.4229L6.91113 9.75586C6.5857 9.43042 6.5857 8.90259 6.91113 8.57715C7.23649 8.25215 7.76351 8.25215 8.08887 8.57715L9.16699 9.65527L11.9111 6.91113Z" fill="#3F3F51"/>
</svg>
