<svg width="20" height="20" viewBox="0 0 20 20" fill="none" xmlns="http://www.w3.org/2000/svg">
<path d="M7.5 12.5C9.02229 12.5 10.4384 12.9098 11.498 13.6162C12.5518 14.3188 13.333 15.3813 13.333 16.667C13.3328 17.1271 12.9601 17.5 12.5 17.5C12.0399 17.5 11.6672 17.1271 11.667 16.667C11.667 16.1118 11.3291 15.5068 10.5732 15.0029C9.82323 14.5029 8.7391 14.167 7.5 14.167C6.2609 14.167 5.17677 14.5029 4.42676 15.0029C3.67092 15.5068 3.33301 16.1118 3.33301 16.667C3.33283 17.1271 2.96013 17.5 2.5 17.5C2.03987 17.5 1.66717 17.1271 1.66699 16.667C1.66699 15.3813 2.44822 14.3188 3.50195 13.6162C4.56159 12.9098 5.97771 12.5 7.5 12.5ZM13.3555 13.332C13.461 12.8842 13.9096 12.6066 14.3574 12.7119C16.4439 13.2036 18.333 14.6331 18.333 16.667C18.3328 17.1271 17.9601 17.5 17.5 17.5C17.0399 17.5 16.6672 17.1271 16.667 16.667C16.667 15.7982 15.773 14.7575 13.9756 14.334C13.5277 14.2284 13.2501 13.7799 13.3555 13.332ZM7.5 3.33301C9.80119 3.33301 11.667 5.19881 11.667 7.5C11.667 9.80119 9.80119 11.667 7.5 11.667C5.19881 11.667 3.33301 9.80119 3.33301 7.5C3.33301 5.19881 5.19881 3.33301 7.5 3.33301ZM12.5 3.33301C14.8012 3.33301 16.667 5.19881 16.667 7.5C16.667 9.80119 14.8012 11.667 12.5 11.667C12.0398 11.667 11.667 11.2932 11.667 10.833C11.6672 10.3729 12.0399 10 12.5 10C13.8807 10 15 8.88071 15 7.5C15 6.11929 13.8807 5 12.5 5C12.0399 5 11.6672 4.62708 11.667 4.16699C11.667 3.70675 12.0398 3.33301 12.5 3.33301ZM7.5 5C6.11929 5 5 6.11929 5 7.5C5 8.88071 6.11929 10 7.5 10C8.88071 10 10 8.88071 10 7.5C10 6.11929 8.88071 5 7.5 5Z" fill="#3F3F51"/>
</svg>
