<svg width="20" height="20" viewBox="0 0 20 20" fill="none" xmlns="http://www.w3.org/2000/svg">
<path d="M6.66699 1.66699C8.04755 1.66717 9.16699 2.78639 9.16699 4.16699V15.833C9.16699 17.1706 8.11588 18.2632 6.79492 18.3301L6.66699 18.333H4.16699L4.03809 18.3301C2.75972 18.2653 1.73469 17.2403 1.66992 15.9619L1.66699 15.833V4.16699C1.66699 2.78628 2.78628 1.66699 4.16699 1.66699H6.66699ZM15.833 10.833C17.2136 10.833 18.3328 11.9524 18.333 13.333V15.833C18.333 17.1706 17.2829 18.2632 15.9619 18.3301L15.833 18.333H13.333L13.2051 18.3301C11.9267 18.2653 10.9017 17.2403 10.8369 15.9619L10.833 15.833V13.333C10.8332 11.9526 11.9526 10.8332 13.333 10.833H15.833ZM13.333 12.5C12.873 12.5002 12.5002 12.873 12.5 13.333V15.833C12.5 16.2931 12.8729 16.6668 13.333 16.667H15.833C16.2932 16.667 16.667 16.2932 16.667 15.833V13.333C16.6668 12.8729 16.2931 12.5 15.833 12.5H13.333ZM4.16699 3.33301C3.70675 3.33301 3.33301 3.70676 3.33301 4.16699V15.833C3.33301 16.2932 3.70676 16.667 4.16699 16.667H6.66699C7.12708 16.6668 7.5 16.2931 7.5 15.833V4.16699C7.5 3.70686 7.12708 3.33318 6.66699 3.33301H4.16699ZM15.833 1.66699C17.2137 1.66699 18.333 2.78628 18.333 4.16699V6.66699C18.3328 8.00443 17.2828 9.09616 15.9619 9.16309L15.833 9.16699H13.333L13.2051 9.16309C11.9267 9.09832 10.9017 8.07329 10.8369 6.79492L10.833 6.66699V4.16699C10.833 2.78639 11.9524 1.66717 13.333 1.66699H15.833ZM13.333 3.33301C12.8729 3.33318 12.5 3.70686 12.5 4.16699V6.66699C12.5002 7.12697 12.873 7.49982 13.333 7.5H15.833C16.2931 7.5 16.6668 7.12708 16.667 6.66699V4.16699C16.667 3.70675 16.2932 3.33301 15.833 3.33301H13.333Z" fill="#3F3F51"/>
</svg>
