<svg width="20" height="20" viewBox="0 0 20 20" fill="none" xmlns="http://www.w3.org/2000/svg">
<path d="M15 1.66699C16.8409 1.66699 18.333 3.15905 18.333 5C18.333 6.84095 16.8409 8.33301 15 8.33301C13.9968 8.33301 13.0974 7.88978 12.4863 7.18848L8.25977 9.30176C8.30777 9.52695 8.33301 9.76049 8.33301 10C8.33301 10.2395 8.30777 10.4731 8.25977 10.6982L12.4863 12.8115C13.0974 12.1102 13.9968 11.667 15 11.667C16.8409 11.667 18.333 13.1591 18.333 15C18.333 16.8409 16.8409 18.333 15 18.333C13.1591 18.333 11.667 16.8409 11.667 15C11.667 14.7605 11.6922 14.5269 11.7402 14.3018L7.51367 12.1885C6.90258 12.8898 6.00325 13.333 5 13.333C3.15905 13.333 1.66699 11.8409 1.66699 10C1.66699 8.15905 3.15905 6.66699 5 6.66699C6.00325 6.66699 6.90258 7.11022 7.51367 7.81152L11.7402 5.69824C11.6922 5.47305 11.667 5.23951 11.667 5C11.667 3.15905 13.1591 1.66699 15 1.66699ZM15 13.333C14.0795 13.333 13.333 14.0795 13.333 15C13.333 15.9205 14.0795 16.667 15 16.667C15.9205 16.667 16.667 15.9205 16.667 15C16.667 14.0795 15.9205 13.333 15 13.333ZM5 8.33301C4.07953 8.33301 3.33301 9.07953 3.33301 10C3.33301 10.9205 4.07953 11.667 5 11.667C5.92047 11.667 6.66699 10.9205 6.66699 10C6.66699 9.07953 5.92047 8.33301 5 8.33301ZM15 3.33301C14.0795 3.33301 13.333 4.07953 13.333 5C13.333 5.92047 14.0795 6.66699 15 6.66699C15.9205 6.66699 16.667 5.92047 16.667 5C16.667 4.07953 15.9205 3.33301 15 3.33301Z" fill="#3F3F51"/>
</svg>
