<svg width="48" height="48" viewBox="0 0 48 48" fill="none" xmlns="http://www.w3.org/2000/svg">
<path d="M8.14404 4.07812C16.4673 4.6889 21.6385 8.79264 24.2778 12.4824C28.3711 6.89621 35.101 6.13452 39.9536 6.01953L40.1626 6.02051C42.3107 6.08331 44.0704 7.8947 43.938 10.125C43.5238 17.0807 41.0568 21.9067 37.5796 25.0703C34.3561 28.0029 30.4276 29.3602 26.8901 29.8145L26.188 29.8936C26.1247 29.8997 26.0619 29.9032 25.9995 29.9062V42C25.9995 43.1046 25.1041 44 23.9995 44C22.8951 43.9998 21.9995 43.1044 21.9995 42V27.8574C21.9022 27.8548 21.8036 27.8508 21.7046 27.8408C13.948 27.0598 9.37197 24.0462 6.83447 19.9785C4.38329 16.0488 4.05993 11.4666 4.0083 8.0293C3.97517 5.82247 5.80155 3.90652 8.14404 4.07812ZM39.9351 10.0225C34.3166 10.1676 28.4909 11.2291 25.9995 17.6387V25.8896C29.0465 25.5623 32.3062 24.4594 34.8872 22.1113C37.4656 19.7655 39.5508 16.0122 39.9351 10.0225ZM8.01025 8.08105C8.06656 11.3994 8.42042 14.9619 10.229 17.8613C11.963 20.641 15.2598 23.1465 21.9995 23.8477V16.4336C20.6179 13.56 16.389 8.75215 8.01025 8.08105Z" fill="#3F3F51"/>
</svg>
