<svg width="20" height="20" viewBox="0 0 20 20" fill="none" xmlns="http://www.w3.org/2000/svg">
<path d="M8.32031 1.54213C9.35812 0.936803 10.6419 0.936802 11.6797 1.54213L16.6797 4.45912C17.7035 5.05642 18.3328 6.1527 18.333 7.33803V13.2169C18.3329 14.4023 17.7035 15.4985 16.6797 16.0958L11.6797 19.0128C10.6418 19.6182 9.35816 19.6182 8.32031 19.0128L3.32031 16.0958C2.29648 15.4985 1.66713 14.4023 1.66699 13.2169V7.33803C1.66718 6.1527 2.29645 5.05642 3.32031 4.45912L8.32031 1.54213ZM3.33301 13.2169C3.33314 13.8095 3.64831 14.3578 4.16016 14.6564L9.16016 17.5734C9.16228 17.5746 9.16486 17.5751 9.16699 17.5763V10.7921L3.33301 7.87514V13.2169ZM10.833 10.7921V17.5763C10.8351 17.5751 10.8377 17.5746 10.8398 17.5734L15.8398 14.6564C16.3517 14.3578 16.6669 13.8095 16.667 13.2169V7.87514L10.833 10.7921ZM10.8398 2.98159C10.321 2.67906 9.67897 2.67906 9.16016 2.98159L4.16016 5.89858C4.00849 5.98705 3.87669 6.09973 3.7627 6.2267L10 9.34487L16.2363 6.2267C16.1224 6.09994 15.9913 5.98694 15.8398 5.89858L10.8398 2.98159Z" fill="#3F3F51"/>
</svg>
