<svg width="20" height="20" viewBox="0 0 20 20" fill="none" xmlns="http://www.w3.org/2000/svg">
<path d="M10 12.5C11.9719 12.5 13.7968 12.9978 15.1553 13.8467C16.5021 14.6884 17.5 15.9584 17.5 17.5C17.5 17.9601 17.1271 18.3328 16.667 18.333C16.2068 18.333 15.833 17.9602 15.833 17.5C15.833 16.7405 15.3383 15.927 14.2725 15.2607C13.2182 14.6018 11.7098 14.167 10 14.167C8.29025 14.167 6.78182 14.6018 5.72754 15.2607C4.66166 15.927 4.16699 16.7405 4.16699 17.5C4.16699 17.9602 3.79324 18.333 3.33301 18.333C2.87292 18.3328 2.5 17.9601 2.5 17.5C2.5 15.9584 3.4979 14.6884 4.84473 13.8467C6.20325 12.9978 8.02809 12.5 10 12.5ZM10 1.66699C12.7614 1.66699 15 3.90557 15 6.66699C14.9998 9.42827 12.7613 11.667 10 11.667C7.23868 11.667 5.00018 9.42827 5 6.66699C5 3.90557 7.23858 1.66699 10 1.66699ZM10 3.33301C8.15905 3.33301 6.66699 4.82604 6.66699 6.66699C6.66717 8.50779 8.15916 10 10 10C11.8408 10 13.3328 8.50779 13.333 6.66699C13.333 4.82604 11.8409 3.33301 10 3.33301Z" fill="#3F3F51"/>
</svg>
