<svg width="20" height="20" viewBox="0 0 20 20" fill="none" xmlns="http://www.w3.org/2000/svg">
<path d="M9.04297 11.8154C9.65554 11.5617 10.3445 11.5617 10.957 11.8154C11.2283 11.9278 11.4518 12.0926 11.6592 12.2734C11.8564 12.4454 12.0794 12.6693 12.3379 12.9277L12.3701 12.96C12.6311 13.221 12.8561 13.4458 13.0293 13.6445C13.2103 13.8523 13.375 14.0756 13.4873 14.3467C13.741 14.9592 13.741 15.6472 13.4873 16.2598C13.375 16.5308 13.2103 16.7541 13.0293 16.9619C12.8561 17.1608 12.6313 17.3863 12.3701 17.6475L12.3379 17.6787C12.0794 17.9372 11.8564 18.161 11.6592 18.333C11.4518 18.5139 11.2283 18.6786 10.957 18.791C10.3445 19.0447 9.65554 19.0447 9.04297 18.791C8.77174 18.6786 8.54813 18.5138 8.34082 18.333C8.14361 18.161 7.92045 17.9371 7.66211 17.6787L7.64355 17.6601L7.62402 17.6416C7.36558 17.3832 7.14268 17.16 6.9707 16.9629C6.78961 16.7553 6.62422 16.5314 6.51172 16.2598C6.25812 15.6473 6.25811 14.9591 6.51172 14.3467C6.62423 14.0751 6.78963 13.8511 6.9707 13.6435C7.14271 13.4464 7.36561 13.2232 7.62402 12.9648L7.66211 12.9277C7.92059 12.6692 8.14363 12.4454 8.34082 12.2734C8.54821 12.0926 8.77173 11.9279 9.04297 11.8154ZM10.3193 13.3545C10.1153 13.27 9.8857 13.2701 9.68164 13.3545C9.64696 13.3688 9.58003 13.4051 9.43652 13.5303C9.28735 13.6604 9.10391 13.8424 8.82129 14.125C8.5389 14.4074 8.35665 14.5901 8.22656 14.7393C8.1014 14.8827 8.0661 14.9498 8.05176 14.9844C7.9672 15.1885 7.96721 15.4179 8.05176 15.6221C8.06612 15.6567 8.10145 15.7237 8.22656 15.8672C8.35663 16.0163 8.53886 16.199 8.82129 16.4814C9.10374 16.7639 9.2873 16.946 9.43652 17.0762C9.58014 17.2014 9.64709 17.2376 9.68164 17.2519C9.8857 17.3363 10.1153 17.3365 10.3193 17.2519C10.3541 17.2375 10.4212 17.2012 10.5645 17.0762C10.7135 16.9461 10.8964 16.7638 11.1787 16.4814C11.461 16.1992 11.6427 16.0161 11.7725 15.8672C11.8971 15.7241 11.9327 15.6572 11.9473 15.6221C12.0318 15.4179 12.0318 15.1886 11.9473 14.9844C11.9327 14.9492 11.8971 14.8823 11.7725 14.7393C11.6427 14.5903 11.461 14.4073 11.1787 14.125C10.8963 13.8426 10.7135 13.6604 10.5645 13.5303C10.4211 13.4052 10.354 13.3689 10.3193 13.3545ZM3.74023 6.51171C4.35274 6.25808 5.04084 6.25801 5.65332 6.51171C5.92488 6.62421 6.14886 6.78963 6.35644 6.9707C6.55353 7.14264 6.77686 7.36571 7.03516 7.62402L7.06738 7.65624C7.32825 7.91711 7.55251 8.14215 7.72559 8.34081C7.90661 8.54862 8.07127 8.77186 8.18359 9.04296C8.4373 9.65547 8.43725 10.3435 8.18359 10.956C8.07128 11.2272 7.90665 11.4513 7.72559 11.6592C7.5524 11.8579 7.32742 12.0827 7.06641 12.3437L7.03516 12.376C6.77675 12.6344 6.55359 12.8573 6.35644 13.0293C6.14883 13.2104 5.92493 13.3758 5.65332 13.4883C5.04094 13.7419 4.35266 13.7418 3.74023 13.4883C3.4687 13.3758 3.2446 13.2103 3.03711 13.0293C2.83995 12.8573 2.61665 12.6342 2.3584 12.376L2.33984 12.3564L2.32031 12.3379C2.06192 12.0795 1.83894 11.8563 1.66699 11.6592C1.48594 11.4516 1.32049 11.2276 1.20801 10.956C0.954476 10.3436 0.954389 9.65535 1.20801 9.04296C1.32052 8.77134 1.48592 8.54743 1.66699 8.33984C1.83899 8.14266 2.06192 7.9195 2.32031 7.66113L2.33984 7.64257L2.3584 7.62402C2.6168 7.3656 2.83996 7.14267 3.03711 6.9707C3.24472 6.7896 3.46863 6.62422 3.74023 6.51171ZM14.3467 6.51171C14.9592 6.25798 15.6482 6.25798 16.2607 6.51171C16.5322 6.62421 16.7554 6.78969 16.9629 6.9707C17.1601 7.14268 17.3832 7.36556 17.6416 7.62402L17.6738 7.65624C17.9348 7.91724 18.1599 8.14207 18.333 8.34081C18.514 8.5486 18.6787 8.77187 18.791 9.04296C19.0447 9.65543 19.0446 10.3436 18.791 10.956C18.6787 11.2272 18.5141 11.4513 18.333 11.6592C18.1598 11.858 17.9349 12.0827 17.6738 12.3437L17.6416 12.376C17.3833 12.6343 17.16 12.8574 16.9629 13.0293C16.7554 13.2103 16.5322 13.3758 16.2607 13.4883C15.6482 13.742 14.9593 13.742 14.3467 13.4883C14.0751 13.3758 13.8511 13.2103 13.6436 13.0293C13.4465 12.8574 13.2239 12.6341 12.9658 12.376L12.9277 12.3379C12.6693 12.0794 12.4464 11.8563 12.2744 11.6592C12.0933 11.4516 11.9279 11.2277 11.8154 10.956C11.5618 10.3436 11.5617 9.65542 11.8154 9.04296C11.9279 8.77134 12.0933 8.54743 12.2744 8.33984C12.4464 8.14271 12.6694 7.91943 12.9277 7.66113L12.9658 7.62402C13.2243 7.36557 13.4474 7.14267 13.6445 6.9707C13.8521 6.78968 14.0752 6.62421 14.3467 6.51171ZM5.01562 8.05175C4.81146 7.96718 4.5821 7.96721 4.37793 8.05175C4.34325 8.06611 4.27633 8.10138 4.13281 8.22656C3.98364 8.35667 3.8002 8.53866 3.51758 8.82128C3.2352 9.10367 3.05295 9.2864 2.92285 9.43554C2.79774 9.57898 2.7624 9.64603 2.74805 9.68066C2.66351 9.88476 2.66358 10.1142 2.74805 10.3184C2.7624 10.353 2.79786 10.4201 2.92285 10.5635C3.05297 10.7126 3.23594 10.8961 3.51855 11.1787C3.80073 11.4609 3.98367 11.6433 4.13281 11.7734C4.27621 11.8985 4.34341 11.9339 4.37793 11.9482C4.58204 12.0327 4.81153 12.0328 5.01562 11.9482C5.05032 11.9339 5.11737 11.8985 5.26074 11.7734C5.40986 11.6434 5.59254 11.4612 5.875 11.1787C6.15713 10.8966 6.339 10.7133 6.46875 10.5644C6.59356 10.4212 6.62998 10.3535 6.64453 10.3184C6.72896 10.1143 6.72905 9.88472 6.64453 9.68066C6.62998 9.64554 6.59356 9.57881 6.46875 9.43554C6.33898 9.28659 6.15734 9.10362 5.875 8.82128C5.59253 8.53881 5.40987 8.35666 5.26074 8.22656C5.11761 8.10171 5.05038 8.06619 5.01562 8.05175ZM15.623 8.05175C15.4189 7.96717 15.1886 7.96717 14.9844 8.05175C14.9496 8.06624 14.8821 8.10194 14.7393 8.22656C14.5902 8.35665 14.4074 8.5389 14.125 8.82128C13.8426 9.10372 13.6604 9.28639 13.5303 9.43554C13.4052 9.57888 13.3699 9.64599 13.3555 9.68066C13.2709 9.8848 13.271 10.1142 13.3555 10.3184C13.3698 10.353 13.4052 10.42 13.5303 10.5635C13.6604 10.7126 13.8424 10.8961 14.125 11.1787C14.4074 11.4611 14.5901 11.6433 14.7393 11.7734C14.8825 11.8984 14.9497 11.9339 14.9844 11.9482C15.1886 12.0328 15.4189 12.0328 15.623 11.9482C15.6578 11.9338 15.7244 11.8979 15.8672 11.7734C16.0163 11.6433 16.1999 11.4613 16.4824 11.1787C16.7646 10.8965 16.9464 10.7134 17.0762 10.5644C17.201 10.4212 17.2364 10.3535 17.251 10.3184C17.3355 10.1142 17.3355 9.88481 17.251 9.68066C17.2364 9.64549 17.2007 9.57852 17.0762 9.43554C16.9464 9.28659 16.7647 9.10361 16.4824 8.82128C16.1998 8.53866 16.0164 8.35667 15.8672 8.22656C15.7245 8.10213 15.6579 8.06626 15.623 8.05175ZM9.04297 1.208C9.65554 0.954266 10.3445 0.954266 10.957 1.208C11.2285 1.32044 11.4517 1.48602 11.6592 1.66699C11.8563 1.83889 12.0796 2.062 12.3379 2.32031L12.3701 2.35253C12.631 2.61342 12.8562 2.83842 13.0293 3.0371C13.2104 3.24494 13.375 3.46906 13.4873 3.74023C13.7409 4.35273 13.741 5.04083 13.4873 5.65331C13.375 5.9244 13.2103 6.14765 13.0293 6.35546C12.8561 6.55432 12.6313 6.77985 12.3701 7.04101L12.3379 7.07226C12.0795 7.3307 11.8563 7.55361 11.6592 7.72558C11.4516 7.9066 11.2285 8.07208 10.957 8.18456C10.3445 8.4383 9.65554 8.4383 9.04297 8.18456C8.77154 8.07206 8.54826 7.90653 8.34082 7.72558C8.14362 7.55355 7.92044 7.33061 7.66211 7.07226L7.62402 7.03515C7.36562 6.77676 7.14267 6.55358 6.9707 6.35644C6.78961 6.14882 6.62422 5.92492 6.51172 5.65331C6.25806 5.04089 6.25816 4.35268 6.51172 3.74023C6.62421 3.46865 6.78966 3.24467 6.9707 3.0371C7.14268 2.83994 7.36564 2.61676 7.62402 2.35839L7.64355 2.33984L7.66211 2.32031C7.92045 2.06195 8.14371 1.83892 8.34082 1.66699C8.54831 1.48603 8.77157 1.32046 9.04297 1.208ZM10.3193 2.74804C10.1153 2.66352 9.88572 2.66364 9.68164 2.74804C9.647 2.76239 9.57978 2.79793 9.43652 2.92285C9.28735 3.05296 9.1039 3.23594 8.82129 3.51855C8.53897 3.80087 8.35663 3.98369 8.22656 4.13281C8.1015 4.2762 8.06609 4.34331 8.05176 4.37792C7.96728 4.58205 7.96721 4.81151 8.05176 5.01562C8.06616 5.05033 8.10154 5.11741 8.22656 5.26074C8.35664 5.40986 8.53881 5.59251 8.82129 5.87499C9.10374 6.15745 9.2873 6.33955 9.43652 6.46972C9.58005 6.59491 9.6471 6.63022 9.68164 6.64452C9.88577 6.72901 10.1152 6.72907 10.3193 6.64452C10.3541 6.63005 10.4215 6.5944 10.5645 6.46972C10.7136 6.33963 10.8963 6.15741 11.1787 5.87499C11.461 5.59266 11.6427 5.40969 11.7725 5.26074C11.8969 5.11784 11.9326 5.05083 11.9473 5.01562C12.0318 4.81146 12.0318 4.58209 11.9473 4.37792C11.9327 4.3428 11.8973 4.2751 11.7725 4.13183C11.6427 3.98297 11.4607 3.80057 11.1787 3.51855C10.8961 3.23596 10.7136 3.05296 10.5645 2.92285C10.4212 2.79792 10.3541 2.76246 10.3193 2.74804Z" fill="#3F3F51"/>
</svg>
