<svg width="20" height="20" viewBox="0 0 20 20" fill="none" xmlns="http://www.w3.org/2000/svg">
<path d="M9.29101 2.31794C9.75369 2.18113 10.2463 2.18113 10.709 2.31794C11.0163 2.40883 11.2724 2.56483 11.5117 2.74372C11.7372 2.91229 11.9916 3.1352 12.2842 3.39118L16.3047 6.90974C16.3225 6.92534 16.3408 6.94029 16.3584 6.95563C16.6397 7.20133 16.8855 7.41675 17.0684 7.6861C17.2283 7.9218 17.347 8.18243 17.4189 8.45759C17.5012 8.77234 17.5003 9.09937 17.5 9.47224V14.192C17.5 14.5579 17.5003 14.874 17.4824 15.1353C17.4636 15.4102 17.422 15.6851 17.3096 15.9566C17.0561 16.5685 16.5702 17.0561 15.957 17.3101C15.6855 17.4226 15.4105 17.4642 15.1357 17.483C14.8746 17.5008 14.5588 17.5006 14.1934 17.5006H14.1396C13.7744 17.5006 13.4592 17.5008 13.1982 17.483C12.9235 17.4642 12.6484 17.4225 12.3769 17.3101C11.7639 17.0562 11.277 16.5687 11.0234 15.9566C10.911 15.6851 10.8703 15.4101 10.8516 15.1353C10.8338 14.8744 10.833 14.5592 10.833 14.1939V13.3336C10.833 12.8733 10.4602 12.5006 9.99999 12.5006C9.5398 12.5006 9.16698 12.8734 9.16698 13.3336V14.192C9.16699 14.558 9.16725 14.874 9.14941 15.1353C9.13063 15.4101 9.08895 15.6851 8.97655 15.9566C8.72309 16.5685 8.23701 17.0561 7.62401 17.3101C7.35235 17.4227 7.07663 17.4642 6.80175 17.483C6.54066 17.5008 6.22481 17.5006 5.85937 17.5006H5.80663C5.44109 17.5006 5.1253 17.5008 4.86425 17.483C4.58949 17.4642 4.31447 17.4226 4.04296 17.3101C3.42992 17.0561 2.9439 16.5686 2.69042 15.9566C2.57796 15.6851 2.53632 15.4101 2.51757 15.1353C2.49977 14.8744 2.49998 14.5592 2.49999 14.1939V9.46735C2.49962 9.09745 2.49909 8.77123 2.58105 8.45759C2.65334 8.18092 2.77265 7.92038 2.93163 7.6861C3.11454 7.41666 3.36107 7.20153 3.64257 6.95563C3.65996 6.94044 3.67765 6.92519 3.6953 6.90974L7.69628 3.40876L7.71874 3.38923C8.01038 3.13403 8.2643 2.91192 8.48925 2.74372C8.72824 2.56503 8.98382 2.40878 9.29101 2.31794ZM10.2363 3.91559C10.0822 3.87009 9.91775 3.87008 9.76366 3.91559C9.72105 3.9282 9.64637 3.95974 9.4873 4.07868C9.31986 4.20388 9.11417 4.38246 8.79394 4.66267L4.79296 8.16364C4.42627 8.48449 4.35685 8.55343 4.31054 8.62165C4.25644 8.70134 4.21698 8.78902 4.19335 8.87946C4.17272 8.95875 4.16698 9.05573 4.16698 9.54352V14.1666C4.16698 14.5663 4.16718 14.8246 4.18066 15.022C4.19362 15.2119 4.21609 15.2842 4.23046 15.3189C4.31522 15.5235 4.47721 15.6857 4.68066 15.7701C4.71531 15.7844 4.78789 15.8069 4.97753 15.8199C5.17498 15.8334 5.43343 15.8336 5.833 15.8336C6.23255 15.8336 6.49088 15.8334 6.68847 15.8199C6.87866 15.8069 6.9517 15.7844 6.98632 15.7701C7.18972 15.6857 7.35177 15.5235 7.43651 15.3189C7.4509 15.2842 7.47335 15.2118 7.48632 15.022C7.49981 14.8246 7.49999 14.5662 7.49999 14.1666V13.3336C7.49999 11.9529 8.61933 10.8336 9.99999 10.8336C11.3807 10.8336 12.5 11.9529 12.5 13.3336V14.1666C12.5 14.5663 12.5002 14.8246 12.5137 15.022C12.5266 15.2118 12.5491 15.2842 12.5635 15.3189C12.6482 15.5236 12.8109 15.6857 13.0146 15.7701C13.0494 15.7845 13.1219 15.807 13.3115 15.8199C13.509 15.8334 13.7674 15.8336 14.167 15.8336C14.5664 15.8336 14.8249 15.8334 15.0225 15.8199C15.2123 15.8069 15.2847 15.7844 15.3193 15.7701C15.5228 15.6858 15.6847 15.5236 15.7695 15.3189C15.7839 15.2842 15.8063 15.2118 15.8193 15.022C15.8328 14.8246 15.833 14.5662 15.833 14.1666V9.54352C15.833 9.05658 15.8264 8.95908 15.8057 8.87946C15.7816 8.78743 15.7426 8.69997 15.6894 8.62165C15.6432 8.55354 15.5742 8.4841 15.208 8.16364L11.208 4.66364C10.8874 4.38309 10.6813 4.20405 10.5137 4.07868C10.3543 3.95955 10.2791 3.92824 10.2363 3.91559Z" fill="#3F3F51"/>
</svg>
