<svg width="16" height="16" viewBox="0 0 16 16" fill="none" xmlns="http://www.w3.org/2000/svg">
<path fill-rule="evenodd" clip-rule="evenodd" d="M8.00008 0.666504C12.0502 0.666504 15.3334 3.94975 15.3334 7.99984C15.3334 12.0499 12.0502 15.3332 8.00008 15.3332C3.94999 15.3332 0.666748 12.0499 0.666748 7.99984C0.666748 3.94975 3.94999 0.666504 8.00008 0.666504ZM10.3168 8.66678H5.70195C5.8464 10.4591 6.59056 12.1848 7.93444 13.8441L8.00278 13.9268C9.35545 12.2932 10.1217 10.5951 10.3017 8.83223L10.3168 8.66678ZM4.36431 8.66677L2.03672 8.66664C2.31331 11.1682 4.12778 13.2062 6.51372 13.8143C5.21121 12.2841 4.49475 10.5684 4.36431 8.66677ZM13.9634 8.66664L11.6562 8.66655C11.5313 10.6259 10.8267 12.3371 9.54222 13.8001C11.9005 13.1745 13.689 11.1487 13.9634 8.66664ZM6.53419 2.18021L6.45612 2.20036C4.09851 2.82638 2.31092 4.85183 2.03668 7.33337L4.36783 7.33332C4.50795 5.43942 5.23007 3.72172 6.53419 2.18021ZM8.00297 2.08594L8.05189 2.02497C6.64216 3.73031 5.85973 5.49978 5.70463 7.33338H10.3141C10.1647 5.57824 9.43709 3.88186 8.13116 2.24424L8.00297 2.08594ZM9.51981 2.19398L9.58673 2.27085C10.8322 3.72796 11.5209 5.41544 11.6529 7.33328L13.9635 7.33337C13.6883 4.84334 11.8894 2.81252 9.51981 2.19398Z" fill="#6E718C"/>
</svg>
