<svg width="16" height="16" viewBox="0 0 16 16" fill="none" xmlns="http://www.w3.org/2000/svg">
<path fill-rule="evenodd" clip-rule="evenodd" d="M1.66662 4.94242V5.60909C1.66662 5.78004 1.79531 5.92093 1.96108 5.94018L1.99996 5.94242H14.1666C14.7521 5.94242 15.0456 5.24773 14.6608 4.82808L14.6251 4.79179L11.2165 1.56254C11.0931 1.44567 10.9038 1.44154 10.7759 1.54671L10.7452 1.57528L10.2867 2.05925C10.1699 2.18261 10.1657 2.37187 10.2709 2.49984L10.2995 2.53048L12.4936 4.60909H1.99996C1.82901 4.60909 1.68812 4.73777 1.66887 4.90355L1.66662 4.94242V5.60909V4.94242ZM14 9.99996H1.83329C1.24785 9.99996 0.954306 10.6947 1.33907 11.1143L1.3748 11.1506L4.78345 14.3798C4.90681 14.4967 5.09607 14.5008 5.22404 14.3957L5.25468 14.3671L5.71317 13.8831C5.83005 13.7598 5.83418 13.5705 5.72901 13.4425L5.70044 13.4119L3.50635 11.3333H14C14.1709 11.3333 14.3118 11.2046 14.331 11.0388L14.3333 11V10.3333C14.3333 10.1623 14.2046 10.0215 14.0388 10.0022L14 9.99996H1.83329H14Z" fill="#6E718C"/>
</svg>
