<svg width="16" height="16" viewBox="0 0 16 16" fill="none" xmlns="http://www.w3.org/2000/svg">
<path d="M10 8.66699C12.21 8.66699 14 10.458 14 12.667V14.667C13.9998 15.0352 13.6996 15.333 13.333 15.333H2.66699C2.30043 15.333 2.00018 15.0352 2 14.667V12.667C2 10.458 3.79 8.66699 6 8.66699H10ZM6 10C4.52678 10 3.33301 11.194 3.33301 12.667V14H12.667V12.667C12.667 11.194 11.4732 10 10 10H6ZM8 1C9.83989 1 11.3328 2.49216 11.333 4.33301C11.333 6.17401 9.84 7.66699 8 7.66699C6.16 7.66699 4.66699 6.17401 4.66699 4.33301C4.66717 2.49216 6.16011 1 8 1ZM8 2.33301C6.89608 2.33301 6.00018 3.22894 6 4.33301C6 5.43722 6.89597 6.33301 8 6.33301C9.10403 6.33301 10 5.43722 10 4.33301C9.99982 3.22894 9.10392 2.33301 8 2.33301Z" fill="#6E718C"/>
</svg>
