<svg width="16" height="16" viewBox="0 0 16 16" fill="none" xmlns="http://www.w3.org/2000/svg">
<path d="M10 1.33301C10.3682 1.33301 10.667 1.63181 10.667 2V3.66699H14.667C15.0349 3.66717 15.3328 3.96508 15.333 4.33301V8C15.333 8.36808 15.035 8.66682 14.667 8.66699H14V14C14 14.3682 13.7012 14.667 13.333 14.667H2.66699C2.2988 14.667 2 14.3682 2 14V8.66699H1.33301C0.964967 8.66682 0.666992 8.36808 0.666992 8V4.33301C0.667168 3.96508 0.965076 3.66717 1.33301 3.66699H5.33301V2C5.33301 1.63181 5.63181 1.33301 6 1.33301H10ZM3.33301 13.333H4.66699V10.667C4.66699 10.2989 4.96497 10.0002 5.33301 10C5.7012 10 6 10.2988 6 10.667V13.333H12.667V8.66699H3.33301V13.333ZM6.66699 4.33301C6.66699 4.7012 6.36819 5 6 5H2V7.33301H14V5H10C9.63181 5 9.33301 4.7012 9.33301 4.33301V2.66699H6.66699V4.33301Z" fill="#6E718C"/>
</svg>
