<svg width="16" height="16" viewBox="0 0 16 16" fill="none" xmlns="http://www.w3.org/2000/svg">
<path fill-rule="evenodd" clip-rule="evenodd" d="M5.12207 1.36791C5.4712 1.25154 5.8492 1.43983 5.96582 1.78881L6.29883 2.78881C6.3221 2.85862 6.33101 2.92998 6.33105 2.99975H9.33301C9.70117 2.99975 9.99995 3.29859 10 3.66674C10 4.03493 9.7012 4.33373 9.33301 4.33373H8.51465C8.43115 4.62631 8.30746 5.02285 8.1377 5.46557C7.79059 6.37069 7.22919 7.53649 6.38867 8.39428C6.37811 8.40506 6.36611 8.41478 6.35547 8.42553C6.94981 8.81607 7.62893 9.17319 8.22266 9.4558C8.60709 9.63878 8.94664 9.78745 9.18945 9.8894C9.31056 9.94024 9.40774 9.97927 9.47363 10.0056C9.50649 10.0187 9.53224 10.0284 9.54883 10.0349C9.55706 10.0381 9.56349 10.0412 9.56738 10.0427C9.569 10.0434 9.57053 10.0434 9.57129 10.0437L9.57227 10.0447C9.61112 10.0596 9.64738 10.0784 9.68164 10.0994L10.7227 7.73217C10.829 7.49019 11.0687 7.33388 11.333 7.33373C11.5975 7.33373 11.8369 7.49008 11.9434 7.73217L13.8447 12.0564L14.6064 13.7234C14.7592 14.058 14.6118 14.453 14.2773 14.6062C13.9425 14.7591 13.5466 14.6119 13.3936 14.2771L12.8096 12.9997H9.85645L9.27344 14.2771C9.12039 14.6119 8.72447 14.7591 8.38965 14.6062C8.05501 14.4531 7.9077 14.0581 8.06055 13.7234L8.82227 12.0564L9.15137 11.3074L9.09473 11.2888H9.09375L9.0918 11.2878C9.09034 11.2873 9.08827 11.2868 9.08594 11.2859C9.0806 11.2838 9.07225 11.2809 9.0625 11.2771C9.04293 11.2694 9.01445 11.2583 8.97852 11.2439C8.90621 11.215 8.80259 11.172 8.67383 11.1179C8.41613 11.0097 8.05645 10.8536 7.64941 10.6599C6.94511 10.3247 6.06841 9.86477 5.32227 9.33666C4.7826 9.7605 4.22802 10.1347 3.75 10.4333C3.342 10.6882 2.98226 10.8943 2.72363 11.0369C2.59431 11.1081 2.48976 11.1637 2.41699 11.2019C2.38064 11.221 2.35182 11.2357 2.33203 11.2458C2.32216 11.2509 2.31403 11.2548 2.30859 11.2576L2.2998 11.2624L2.17383 11.3103C1.8744 11.3915 1.54914 11.2544 1.4043 10.9665C1.23899 10.6377 1.37249 10.2365 1.70117 10.071L1.70508 10.0691C1.70884 10.0672 1.71462 10.0634 1.72266 10.0593C1.739 10.0509 1.76432 10.0383 1.79688 10.0212C1.86231 9.9869 1.95931 9.93544 2.08008 9.86889C2.32192 9.73563 2.66058 9.54198 3.04395 9.30248C3.44196 9.05383 3.87919 8.7599 4.30469 8.43823C3.82541 7.90154 3.47042 7.31423 3.22266 6.82201C3.04165 6.46238 2.91121 6.14103 2.8252 5.90893C2.78215 5.79277 2.74933 5.69787 2.72754 5.63061C2.71673 5.59724 2.70798 5.57069 2.70215 5.55151C2.69924 5.54194 2.69701 5.53383 2.69531 5.52807C2.69448 5.52524 2.6939 5.52211 2.69336 5.52026L2.69238 5.5183V5.51733L3.33301 5.33373C2.73845 5.50367 2.69542 5.5153 2.69238 5.51635C2.59146 5.16248 2.79655 4.79331 3.15039 4.69213C3.50415 4.59126 3.87332 4.79649 3.97461 5.15014V5.15112C3.97525 5.15331 3.97681 5.15722 3.97852 5.16284C3.9821 5.17464 3.98785 5.19404 3.99609 5.21948C4.01273 5.27083 4.03908 5.34858 4.0752 5.44604C4.14762 5.64146 4.2586 5.91545 4.41309 6.22241C4.63577 6.66485 4.93734 7.15084 5.31934 7.57299C5.35817 7.53505 5.39902 7.49896 5.43652 7.46069C6.08678 6.79696 6.5687 5.83256 6.89258 4.98803C6.98306 4.75206 7.05839 4.52982 7.12109 4.33373H2C1.63182 4.33372 1.33301 4.03492 1.33301 3.66674C1.33305 3.2986 1.63185 2.99976 2 2.99975H4.96387L4.70117 2.21069C4.58501 1.86165 4.77321 1.48452 5.12207 1.36791ZM10.4502 11.6667H12.2168L11.333 9.65698L10.4502 11.6667Z" fill="#6E718C"/>
</svg>
