<svg width="16" height="16" viewBox="0 0 16 16" fill="none" xmlns="http://www.w3.org/2000/svg">
<path d="M7.99707 1.33301C8.36519 1.3331 8.66406 1.63186 8.66406 2C8.66406 2.36814 8.36519 2.6669 7.99707 2.66699H2.66699V13.333H8C8.36819 13.333 8.66699 13.6318 8.66699 14C8.66699 14.3682 8.36819 14.667 8 14.667H2C1.63181 14.667 1.33301 14.3682 1.33301 14V2C1.33301 1.63181 1.63181 1.33301 2 1.33301H7.99707ZM10.5283 4.52832C10.7887 4.26797 11.2113 4.26798 11.4717 4.52832L14.4551 7.51172C14.5538 7.60427 14.6252 7.7256 14.6533 7.86328L14.667 8C14.667 8.17059 14.6019 8.34151 14.4717 8.47168L11.4717 11.4717C11.2113 11.732 10.7887 11.732 10.5283 11.4717C10.268 11.2113 10.268 10.7887 10.5283 10.5283L12.3936 8.66406H5.33301C4.96497 8.66389 4.66699 8.36515 4.66699 7.99707C4.66708 7.62906 4.96502 7.33123 5.33301 7.33105H12.3887L10.5283 5.47168C10.268 5.21134 10.268 4.78867 10.5283 4.52832Z" fill="#E31B54"/>
</svg>
