<svg width="16" height="16" viewBox="0 0 16 16" fill="none" xmlns="http://www.w3.org/2000/svg">
<g clip-path="url(#clip0_664_297)">
<path fill-rule="evenodd" clip-rule="evenodd" d="M7.59863 0.450469C7.81832 0.29469 8.11266 0.294647 8.33301 0.449492L8.69238 0.701446C8.71997 0.720852 8.74634 0.742369 8.77051 0.765899C8.73011 0.726573 8.7751 0.758877 8.72949 0.727813C8.7588 0.747776 8.79581 0.772345 8.83887 0.800078C8.96304 0.880036 9.11083 0.970265 9.27832 1.0657C9.7568 1.33833 10.2982 1.60213 10.8867 1.83426C11.4396 2.05229 12.0308 2.19874 12.6172 2.28543C12.8233 2.31589 13.0141 2.33619 13.1836 2.34891C13.2814 2.35624 13.3645 2.36055 13.3838 2.36063L13.9775 2.36941C14.3249 2.37491 14.6033 2.65874 14.6035 3.00613C14.6036 3.12342 14.6042 3.12455 14.6045 3.61844C14.6047 4.08931 14.6052 4.58406 14.6055 5.0784C14.6057 5.50718 14.6053 5.50775 14.6055 5.94852C14.6058 6.77638 14.6064 7.46619 14.6064 7.97195C14.6065 8.25945 14.6065 8.48377 14.6064 8.63895C14.6064 8.75099 14.6056 8.75143 14.6055 8.82645V8.89578C14.6007 11.9606 10.6773 15.6057 7.96875 15.6057C5.25998 15.6057 1.3332 11.9565 1.33301 8.8909V3.00613C1.33301 2.6586 1.61247 2.3749 1.95996 2.36941L2.56543 2.36063C2.57419 2.36063 2.65719 2.35624 2.75488 2.34891C2.92443 2.33618 3.11511 2.31591 3.32129 2.28543C3.9078 2.19872 4.49838 2.05197 5.0498 1.83426C5.63754 1.6015 6.17842 1.33698 6.6582 1.06375C6.939 0.903827 7.19208 0.742316 7.24316 0.703399L7.59863 0.450469ZM7.96777 1.7493C7.85311 1.83079 7.58217 2.00272 7.28809 2.1702C6.75873 2.47166 6.16448 2.76166 5.51758 3.01785C4.86681 3.27478 4.18424 3.4442 3.50781 3.54422C3.12195 3.60127 2.77163 3.62886 2.60645 3.63211V8.8909C2.60666 11.232 5.94294 14.3333 7.96875 14.3333C9.99592 14.3332 13.3328 11.2323 13.333 8.8909V5.94852C13.3328 5.50773 13.3322 5.50751 13.332 5.0784C13.3318 4.58882 13.3323 4.09888 13.332 3.63211C13.1551 3.62803 12.8101 3.60032 12.4307 3.54422C11.7544 3.44423 11.0715 3.2748 10.4199 3.01785C9.38867 2.61107 8.3254 2.02141 7.96777 1.7493ZM9.90918 6.00027C10.1695 5.73992 10.5922 5.73992 10.8525 6.00027C11.1124 6.26051 11.1123 6.6824 10.8525 6.94266L8.02344 9.77176C7.79566 9.99918 7.44416 10.0274 7.18555 9.85672L7.08105 9.77176L5.66699 8.3577C5.40668 8.09739 5.40677 7.6747 5.66699 7.41434C5.92734 7.15425 6.3491 7.15414 6.60938 7.41434L7.55176 8.35672L9.90918 6.00027Z" fill="#6E718C"/>
</g>
<defs>
<clipPath id="clip0_664_297">
<rect width="16" height="16" fill="white"/>
</clipPath>
</defs>
</svg>
